<?xml version="1.0" encoding="utf-8"?>
<!-- Generator: Adobe Illustrator 15.0.0, SVG Export Plug-In . SVG Version: 6.00 Build 0)  -->
<!DOCTYPE svg PUBLIC "-//W3C//DTD SVG 1.1//EN" "http://www.w3.org/Graphics/SVG/1.1/DTD/svg11.dtd">
<svg version="1.1" id="Layer_1" xmlns="http://www.w3.org/2000/svg" xmlns:xlink="http://www.w3.org/1999/xlink" x="0px" y="0px"
	 width="72px" height="72px" viewBox="0 0 72 72" enable-background="new 0 0 72 72" xml:space="preserve">
<rect fill="#192529" width="72" height="72"/>
<g>
	<path fill="#24B4CE" d="M26.903,50.975c0,0,0.826-2.289,1.525-4.258c-5.88-0.303-12.648-5.498-12.648-13.349
		c0-7.596,6.609-13.538,13.538-13.538s12.395,5.942,13.014,10.424c0,0,2.336-1.335,4.815-1.335s8.819,1.907,8.819,8.867
		c0,6.961-5.626,9.057-8.391,9.057c-0.86,0-2.05,0-2.05,0l-3.575,4.244c0,0,2.432,0.096,5.959,0.096s12.648-4.291,12.648-13.254
		c0-8.961-7.404-13.585-13.316-13.585c-0.947,0-1.842,0.156-2.336,0.286c-1.811-3.814-8.151-9.201-15.588-9.201
		s-17.877,6.245-17.877,17.877C11.441,44.936,21.771,50.975,26.903,50.975z"/>
	<polygon fill="#24B4CE" points="28.984,50.656 34.705,50.656 31.606,60.906 42.857,47.129 36.803,47.129 41.855,38.643 
		33.228,38.643 	"/>
</g>
</svg>
